# xmcd
#
# Track frame offsets:
#	150
#	21673
#	31310
#	43775
#	59345
#	72520
#	87163
#	96985
#	116440
#	131735
#
# Disc length: 1891 seconds
#
# Revision: 1
# Processed by: cddbd v1.5.1PL2 Copyright (c) Steve Scherf et al.
# Submitted via: audiograbber 1.83.01
#
DISCID=8f07610a
DTITLE=Spencers - Coming Soon
DYEAR=1989
DGENRE=Southern Gospel
TTITLE0=Coming Soon
TTITLE1=Buried Treasure
TTITLE2=God Took Nothing And Made Something Of Me
TTITLE3=I'm Longing For Home
TTITLE4=I'm Going To Move In
TTITLE5=When I See The Cross
TTITLE6=Palms Of Victory
TTITLE7=Walking Through The Ages Of Time
TTITLE8=Shepherd Of My Valley
TTITLE9=He's Coming Back
EXTD=
EXTT0=
EXTT1=
EXTT2=
EXTT3=
EXTT4=
EXTT5=
EXTT6=
EXTT7=
EXTT8=
EXTT9=
PLAYORDER=
